<?xml version="1.0" standalone="no"?>
<!DOCTYPE svg PUBLIC "-//W3C//DTD SVG 1.1//EN" "http://www.w3.org/Graphics/SVG/1.1/DTD/svg11.dtd" >
<svg xmlns="http://www.w3.org/2000/svg">
<metadata>
Created by FontForge 20120731 at Mon Jun 19 12:16:41 2017
 By admin
</metadata>
<defs>
<font id="xcms-iconfont" horiz-adv-x="1024" >
  <font-face 
    font-family="xcms-iconfont"
    font-weight="500"
    font-stretch="normal"
    units-per-em="1024"
    panose-1="2 0 6 3 0 0 0 0 0 0"
    ascent="896"
    descent="-128"
    x-height="792"
    bbox="-0.125 -128.014 1024.02 896"
    underline-thickness="0"
    underline-position="0"
    unicode-range="U+0078-E627"
  />
<missing-glyph 
 />
    <glyph glyph-name=".notdef" 
 />
    <glyph glyph-name=".notdef" 
 />
    <glyph glyph-name=".null" horiz-adv-x="0" 
 />
    <glyph glyph-name="nonmarkingreturn" horiz-adv-x="341" 
 />
    <glyph glyph-name="x" unicode="x" horiz-adv-x="1001" 
d="M281 543q-27 -1 -53 -1h-83q-18 0 -36.5 -6t-32.5 -18.5t-23 -32t-9 -45.5v-76h912v41q0 16 -0.5 30t-0.5 18q0 13 -5 29t-17 29.5t-31.5 22.5t-49.5 9h-133v-97h-438v97zM955 310v-52q0 -23 0.5 -52t0.5 -58t-10.5 -47.5t-26 -30t-33 -16t-31.5 -4.5q-14 -1 -29.5 -0.5
t-29.5 0.5h-32l-45 128h-439l-44 -128h-29h-34q-20 0 -45 1q-25 0 -41 9.5t-25.5 23t-13.5 29.5t-4 30v167h911zM163 247q-12 0 -21 -8.5t-9 -21.5t9 -21.5t21 -8.5q13 0 22 8.5t9 21.5t-9 21.5t-22 8.5zM316 123q-8 -26 -14 -48q-5 -19 -10.5 -37t-7.5 -25t-3 -15t1 -14.5
t9.5 -10.5t21.5 -4h37h67h81h80h64h36q23 0 34 12t2 38q-5 13 -9.5 30.5t-9.5 34.5q-5 19 -11 39h-368zM336 498v228q0 11 2.5 23t10 21.5t20.5 15.5t34 6h188q31 0 51.5 -14.5t20.5 -52.5v-227h-327z" />
    <glyph glyph-name="zhankaishouhui" unicode="&#xe603;" 
d="M1007 799q0 -41 -28.5 -70t-71.5 -29h-790q-41 0 -70.5 28.5t-29.5 70.5q0 41 29.5 69t70.5 28h790q41 0 70.5 -28t29.5 -69zM1007 384q0 -41 -28.5 -70.5t-71.5 -29.5h-790q-41 0 -70.5 29t-29.5 71q0 41 28.5 70.5t71.5 29.5h790q41 0 70.5 -29.5t29.5 -70.5zM1007 -28
q0 -41 -28.5 -70.5t-71.5 -29.5h-790q-41 0 -70.5 28.5t-29.5 71.5q0 41 28.5 70t71.5 29h790q41 -2 70.5 -30.5t29.5 -68.5z" />
    <glyph glyph-name="22" unicode="&#xe604;" 
d="M237 287l162 -22l-22 151l-46 -43q-61 64 -61 173q0 91 68 153t158 62q42 0 84.5 -18.5t73 -46t49.5 -59.5t19 -59q1 -5 0 -18q19 4 67 -6l-2 24q-2 19 -10 45t-29 63t-51.5 67t-83 51.5t-117.5 21.5q-69 0 -125.5 -25.5t-92 -67t-54.5 -90t-19 -97.5q0 -132 77 -217z
M637 120l-32 165l-147 -76l56 -27q-8 -16 -17.5 -33t-30 -44t-44 -47.5t-58.5 -35.5t-73 -15q-55 0 -99.5 22.5t-71.5 58t-41 76t-14 80.5q0 71 35 121.5t83 70.5l-10 30q-1 4 -1 7l-5 35q-7 -3 -18 -9t-40 -29t-51 -50t-40 -74.5t-18 -101.5q0 -93 40.5 -162.5
t105.5 -104.5t145 -35q53 0 102 19.5t84.5 50.5t61 67t37.5 72zM733 524q-73 0 -126 -23l-27 55l-74 -147l164 -34l-34 68q42 16 97 16q97 0 161.5 -66t64.5 -160q0 -63 -34.5 -116.5t-86 -81.5t-105.5 -28q-30 0 -57 6.5t-43 16t-28.5 19.5t-17.5 16t-5 7l-43 -54
q20 -22 47.5 -38t52 -23t46.5 -11t35 -4h13q66 0 122 25.5t92.5 66.5t56.5 93t20 106.5t-20 106t-55.5 93t-92 66.5t-123.5 25z" />
    <glyph glyph-name="21" unicode="&#xe605;" 
d="M508 884q-48 0 -82 -31t-35 -75q0 -31 6.5 -68t17 -71.5t23 -69.5t24.5 -63.5t22.5 -51t17 -34.5l6.5 -12q5 8 12.5 24t27.5 62t35.5 89t28 97.5t12.5 97.5q0 44 -34 75t-82 31zM906 535q34 28 37 73.5t-26.5 82t-75 43t-79.5 -20.5q-32 -26 -66.5 -68.5t-59.5 -84
t-45.5 -80t-31.5 -61.5t-11 -24q10 2 27 6t64.5 17t90.5 28t93 39t83 50zM214 667q78 -57 170 -211q-171 46 -250 106q-18 14 -19.5 39.5t15.5 46.5q22 29 54 29q17 0 30 -10zM106 524q53 -40 144 -73t155 -45l65 -13q-5 9 -12.5 24.5t-32 58.5t-49.5 81t-61 80.5t-70 68.5
q-26 20 -61 20q-57 0 -93 -47q-28 -38 -24 -83t39 -72zM80 379q-43 -10 -65 -49t-12 -84q11 -46 48.5 -71t79.5 -15q40 9 89 32.5t89 49t76 52t54 41t20 16.5q-9 3 -26 7t-65 12.5t-92.5 13.5t-100 5t-95.5 -10zM491 328q-8 -6 -22 -17t-52.5 -43.5t-71.5 -65t-69 -76.5
t-55 -82q-20 -40 -3 -83t60.5 -64.5t88.5 -8t64 53.5q30 60 45 156.5t15 162.5v67zM795 44q-19 39 -53 82.5t-70 78t-69 64t-55 45.5l-21 16q0 -10 -0.5 -27.5t1.5 -68t7 -96t17.5 -100.5t31.5 -94q19 -40 63.5 -53.5t88.5 7.5q44 20 61 63.5t-2 82.5zM940 386
q-42 10 -98.5 10t-107 -6t-95 -14t-70.5 -14l-26 -7q7 -7 21 -18t55.5 -41.5t81 -55t91.5 -49.5t95 -35q44 -10 83 16.5t50 74t-12.5 88.5t-67.5 51z" />
    <glyph glyph-name="20" unicode="&#xe606;" 
d="M668 156q-16 24 -43 38t-53 14h-142q-24 0 -51 -14t-46 -38l-57 -79q-32 -43 -43.5 -90t4 -79.5t59.5 -32.5h407q43 0 58.5 32.5t4 79.5t-43.5 90zM503.5 896q-101.5 0 -194.5 -39.5t-160 -107t-106.5 -160t-39.5 -194.5q0 -114 48.5 -214t133.5 -172q3 9 14 27t14 24
q-20 17 -54 57q6 2 21.5 7.5t27.5 9.5q11 -34 17 -54l3 2l14 23q-2 6 -6 17.5t-6 16.5q8 2 22 6l21 6l23 31q-44 -10 -71 -20q-22 82 -26 165q26 4 43.5 22t19.5 44h102v-6q0 -58 41 -99t98.5 -41t98.5 41t41 99v6h105q4 -26 21.5 -44t41.5 -22q-10 -92 -29 -165
q-17 7 -71 20l23 -31l21 -6t22 -6q-6 -22 -12 -34l14 -20l3 -3l17 52q17 -6 46 -17q-34 -40 -54 -57q3 -7 14 -23t14 -26q86 71 134 173t48 214q1 101 -38 193t-106 159t-159.5 106.5t-194 39.5zM942 418h-40q-5 24 -22.5 41t-43.5 22q-8 96 -34 190q7 3 17 6t17 6
q97 -109 106 -265zM819 703q-4 -2 -6.5 -2.5t-7 -1.5t-9.5 -2q-2 7 -5 14t-7 15.5t-7 15.5q23 -16 42 -39zM742 768q3 -6 15 -33t17 -44q-93 -25 -191 -34q-2 26 -19.5 46.5t-42.5 24.5v108q116 -4 221 -68zM503 603q-18 0 -31.5 14.5t-13.5 33.5q0 20 13 33t32 13
t32.5 -14.5t13.5 -33.5q-2 -20 -14.5 -33t-31.5 -13zM267 771q105 65 225 65v-108q-28 -4 -46.5 -25t-18.5 -49q-100 9 -188 34q2 14 6.5 26.5t11.5 29.5t10 27zM236 751q-19 -46 -23 -57q-3 1 -31 9q34 34 54 48zM168 683q7 -3 20 -6t20 -6q-26 -94 -34 -190
q-26 -5 -44 -22t-22 -41h-45q8 156 105 265zM145 137q-78 111 -82 256h42q5 -26 22.5 -44t43.5 -22q9 -95 28 -171q-23 -6 -54 -19zM182 358q-19 0 -32 14.5t-13 34.5q0 18 12.5 30.5t32.5 14.5q19 0 32.5 -14.5t13.5 -33.5t-13 -31t-33 -15zM259 418q-4 24 -21.5 41
t-41.5 22q8 82 32 182q92 -28 199 -37q6 -22 24 -37.5t41 -19.5v-46q-47 -4 -82 -33.5t-46 -74.5h-105v3zM751 418h-108q-11 43 -44.5 73.5t-77.5 34.5v46q21 4 37 18.5t22 35.5q111 9 202 37q27 -95 32 -182q-26 -5 -42.5 -21t-20.5 -42zM779 404q0 19 14.5 32t34.5 13
q19 0 32 -13t13 -32t-14.5 -32.5t-33.5 -13.5q-19 3 -32.5 16t-13.5 30zM811 156q25 100 28 174q26 4 43.5 22t22.5 43h39q0 -146 -82 -258q-14 4 -51 19z" />
    <glyph glyph-name="19" unicode="&#xe607;" 
d="M1010 580l-242 -242q-13 -12 -30 -12t-30 12l-242 242q-12 13 -12 30t12 30l242 242q13 13 30 13t30 -13l242 -242q13 -13 13 -30t-13 -30zM387 -128h-344q-17 0 -30 13t-13 30v344q0 17 13 30t30 13h344q17 0 30 -13t13 -30v-344q0 -17 -13 -30t-30 -13zM387 387h-344
q-17 0 -30 12.5t-13 30.5v344q0 17 13 29.5t30 12.5h344q17 0 30 -12.5t13 -29.5v-344q0 -18 -13 -30.5t-30 -12.5zM558 302h344q17 0 29.5 -13t12.5 -30v-344q0 -17 -12.5 -30t-29.5 -13h-344q-18 0 -30.5 13t-12.5 30v344q0 17 12.5 30t30.5 13z" />
    <glyph glyph-name="18" unicode="&#xe608;" 
d="M1024 358q0 55 -52.5 102.5t-143.5 80.5q13 68 8 122q-24 -21 -55 -29q0 -35 -7 -76q-63 17 -132 25q-42 56 -88 102q34 28 65 46q-4 16 -4 32t4 31q-52 -24 -107 -71q-74 63 -140.5 84t-115.5 -6q-47 -27 -63 -97.5t2 -162.5q-91 -33 -143 -80.5t-52 -102.5t52 -102.5
t143 -80.5q-18 -93 -2 -163t63 -97q49 -27 115.5 -6t140.5 83q73 -62 139.5 -83t116.5 6q47 27 62.5 97t-2.5 163q91 33 143.5 80.5t52.5 102.5zM761 502q-9 -34 -24 -72q-13 25 -24 44q-13 24 -26 43q39 -6 74 -15zM737 286q14 -36 24 -72q-35 -9 -74 -16q14 23 26 44
q13 21 24 44zM662 271q-25 -42 -53 -82q-48 -4 -97 -4q-51 0 -98 4q-28 40 -52 82q-24 41 -45 87q21 45 45 86q25 43 52 83q49 4 98 4q50 0 97 -4q29 -40 53 -83q24 -42 45 -86q-21 -45 -45 -87zM512 70q-26 26 -51 56q26 -1 50.5 -1t50.5 1q-25 -31 -50 -56zM310 242
q12 -21 26 -44q-39 7 -73 16q9 34 23 72q12 -23 24 -44zM286 430q-14 36 -23 72q34 9 73 15q-14 -22 -26 -43t-24 -44zM562 589q-26 1 -50.5 1t-50.5 -1q25 31 51 57q24 -26 50 -57zM288 745q34 18 80.5 2t101.5 -62q-46 -46 -88 -102q-71 -8 -132 -25q-13 68 -3.5 118
t41.5 69zM65 358q0 37 38 70t105 57q16 -63 44 -127q-28 -65 -44 -127q-67 24 -105 57t-38 70zM288 -29q-32 19 -41.5 69t3.5 118q62 -17 132 -25q42 -56 88 -102q-55 -46 -101.5 -62t-80.5 2zM735 -29q-34 -18 -80.5 -2t-100.5 62q46 46 88 102q70 8 132 25q13 -68 3 -118
t-42 -69zM816 231q-17 63 -44 127q27 65 44 127q67 -24 104.5 -57t37.5 -70t-37.5 -70t-104.5 -57zM643 763q0 -44 31 -74.5t74.5 -30.5t74.5 30.5t31 74.5t-31 74.5t-74.5 30.5t-74.5 -30.5t-31 -74.5z" />
    <glyph glyph-name="17" unicode="&#xe609;" 
d="M347 535v159l165 102l165 -113v-148l77 -60v279l-242 142l-242 -142v-276zM646 501l-134 -83l-137 80l-73 -51l210 -120l210 122zM284 324l126 -74v-153l85 -40v242l-211 119v-94zM401 54l-151 -82l-176 96v174l168 96v100l-239 -139v-285l247 -142l236 139l-85 43v0z
M609 102v154l133 65v94l-210 -116v-242zM779 421v-91l165 -77v-182l-173 -97l-151 86l-80 -46l234 -142l247 142v285z" />
    <glyph glyph-name="16" unicode="&#xe60a;" 
d="M416 712l-416 -729l134 49l283 495l157 -277h109zM160 -61h864l-110 89l-572 -1l136 235l-60 98l-247 -421h-11zM533 686l287 -506l-318 -1l-51 -86h539l-434 736z" />
    <glyph glyph-name="15" unicode="&#xe60b;" 
d="M17 569l478 -259q6 -3 14 -3q3 0 8 1.5t6 1.5l484 259q17 8 17 28q0 17 -17 29l-478 242q-14 9 -28 0l-481 -242q-17 -9 -17 -29q-4 -15 14 -28zM1001 421l-94 48l-62 -37l79 -39l-415 -228l-412 228l85 42l-63 37l-99 -51q-17 -9 -17 -28.5t17 -28.5l475 -259
q6 -3 14 -3q3 0 8 1.5t6 1.5l481 259q17 9 17 29q-4 18 -20 28zM1001 216l-91 43l-68 -34l82 -40l-415 -228l-412 228l82 40l-65 34l-94 -43q-17 -8 -17 -28t17 -29l475 -259q6 -2 14 -2q3 0 8 1t6 1l481 259q17 9 17 29q-4 18 -20 28z" />
    <glyph glyph-name="14" unicode="&#xe60c;" 
d="M866 830q27 0 46 -19t19 -46t-19 -46.5t-46 -19.5t-46 19.5t-19 46.5t19 46t46 19zM268 446h-240v-66h240q71 0 110 42t39 113h139q11 -28 36 -46t56 -18q40 0 68.5 29t28.5 69.5t-28.5 69.5t-68.5 29q-32 0 -58 -19t-35 -48h-137v46q0 35 25 60t60 25h238
q11 -43 46 -70.5t80 -27.5q53 0 91 38.5t38 92.5t-38 92.5t-92 38.5q-45 0 -80 -28t-46 -70h-238q-62 0 -105.5 -44.5t-43.5 -107.5v-46h-325v-65h324q0 -40 -21.5 -64.5t-62.5 -24.5zM28 233h411q11 -29 36 -46.5t56 -17.5q40 0 68.5 29t28.5 69.5t-28.5 69.5t-68.5 29
q-32 0 -58 -19t-35 -49h-410v-65zM866 -63q-27 0 -46 19.5t-19 46.5t19 46t46 19t46 -19t19 -46t-19 -46.5t-46 -19.5zM866 134q-45 0 -79.5 -27.5t-46.5 -70.5h-71q-66 0 -127 29l-109 53q-73 36 -155 36h-250v-65h251q66 0 127 -29l109 -54q73 -35 155 -36h71
q11 -43 46 -70.5t80 -27.5q53 0 91 38.5t38 92.5t-38 92.5t-92 38.5z" />
    <glyph glyph-name="13" unicode="&#xe60d;" 
d="M169.5 698q16.5 0 28.5 12t12 29v111q0 17 -11.5 29t-28.5 12t-29 -12t-12 -29v-111q0 -17 12 -29t28.5 -12zM854.5 369q-16.5 0 -28.5 -12t-12 -29v-410q0 -17 12 -29t28.5 -12t28.5 12t12 29v410q0 17 -12 29t-28.5 12zM170 354q-17 0 -29 -12t-12 -29v-400
q0 -17 12 -29t28.5 -12t28.5 12t12 29v400q0 17 -11.5 29t-28.5 12zM854 724q17 0 29 11.5t12 28.5v92q0 16 -12 28t-28.5 12t-28.5 -12t-12 -28v-92q0 -16 11.5 -28t28.5 -12zM519.5 39q-16.5 0 -28.5 -12t-12 -28v-81q0 -17 12 -29t28.5 -12t28.5 12t12 29v81q0 16 -12 28
t-28.5 12zM520 384q16 0 28 12t12 28v432q0 16 -12 28t-28.5 12t-28.5 -12t-12 -28v-431q0 -17 12 -29t29 -12zM555 344h-71q-33 0 -57 -24t-24 -58v-109q0 -33 24 -57t57 -24h71q33 0 57 24t24 57v109q0 34 -23.5 58t-57.5 24zM890 687h-71q-34 0 -57.5 -24t-23.5 -57v-109
q0 -34 23.5 -58t57.5 -24h71q33 0 57 24t24 58v109q0 33 -24 57t-57 24zM205 660h-71q-33 0 -57 -24t-24 -57v-109q0 -33 24 -57t57 -24h71q34 0 57.5 24t23.5 57v109q0 34 -23.5 57.5t-57.5 23.5z" />
    <glyph glyph-name="12" unicode="&#xe60e;" 
d="M856 885h-688q-70 0 -118.5 -48.5t-48.5 -118.5v-549q0 -70 48.5 -119t118.5 -49h158l-80 74h-88q-33 0 -57.5 28.5t-24.5 55.5v566q0 29 27.5 58t61.5 29h697q28 0 56.5 -28.5t28.5 -55.5v-558q0 -30 -23.5 -58t-56.5 -28h-87l-82 -73h159q69 0 118 48.5t49 118.5v549
q0 64 -49 111t-119 47zM688 117l-176 -175l-175 175h351zM688 368l-176 -176l-175 176h351zM688 619l-176 -176l-175 176h351z" />
    <glyph glyph-name="11" unicode="&#xe60f;" 
d="M900 258l-156 274l-156 -3l-160 -273l-85 -2l-164 284l-59 -31l168 -291l189 7l165 283l49 3l155 -273zM0 622q0 -50 35 -85t85 -35t85 35t35 84.5t-35 85t-85 35.5t-85 -35.5t-35 -84.5v0zM264 146.5q0 -49.5 35 -85t84.5 -35.5t85 35.5t35.5 85t-35.5 84.5t-85 35
t-84.5 -35t-35 -84.5zM544 622q0 -50 35.5 -85t85 -35t84.5 35t35 85v0q0 49 -35 84.5t-84.5 35.5t-85 -35.5t-35.5 -84.5v0zM784 146q0 -49 35 -84.5t85 -35.5t85 35.5t35 84.5v0q0 50 -35 85t-85 35t-85 -35t-35 -85v0z" />
    <glyph glyph-name="10" unicode="&#xe610;" 
d="M82 569v-543h99v543h-99zM336 425v-399h98v399h-98zM589 896v-870h99v870h-99zM1004 -24h-984v-104h984v104zM843 678v-652h99v652h-99z" />
    <glyph glyph-name="09" unicode="&#xe611;" 
d="M515 779q-91 0 -174 -35t-142.5 -95t-95 -142.5t-35.5 -173.5t35.5 -174t95 -142.5t142.5 -95t174 -35.5t173.5 35.5t142.5 95t95 142.5t35 174t-35 173.5t-95 142.5t-142.5 95t-173.5 35zM515 -51q-105 0 -193.5 51t-139.5 139.5t-51 193.5t51 194.5t139.5 142
t193.5 52.5t194.5 -51.5t142.5 -140t53 -192t-52.5 -193.5t-143 -143t-194.5 -53zM361 725.5q0 -70.5 50 -120.5t121 -50t121 50t50 120.5t-50 120.5t-121 50t-121 -50t-50 -120.5zM683 117v0q0 -71 50 -121t120.5 -50t120.5 50t50 121v0v0q0 70 -50 120t-120.5 50
t-120.5 -50t-50 -120v0zM0 117v0q0 -71 50 -121t120.5 -50t120.5 50t50 121v0v0q0 70 -50 120t-120.5 50t-120.5 -50t-50 -120v0z" />
    <glyph glyph-name="08" unicode="&#xe612;" 
d="M575 814h-128q-39 0 -66.5 -28.5t-27.5 -68.5q0 -41 28 -69t68 -28h128q41 0 69 28t28 69q0 40 -29.5 68.5t-69.5 28.5zM575 461h-128q-41 0 -69 -28t-28 -68.5t28 -69t69 -28.5h128q40 0 68 28.5t28 69t-28 68.5t-68 28zM575 111h-128q-41 0 -69 -28t-28 -68.5t28 -68.5
t69 -28h128q40 0 68 28t28 68.5t-28 68.5t-68 28zM816 694q27 0 57 -10.5t46 -23.5q20 -15 32 -45t8 -57q-2 -26 -16.5 -54t-29.5 -43q-12 -12 -43 -24.5t-56 -12.5h-37v-68h37q85 0 144.5 59.5t59.5 145t-59.5 145t-144.5 59.5v63l-103 -106l100 -93zM740 387v0
q0 -14 10 -24t24 -10t24 10t10 24v0v0q0 14 -10 24t-24 10t-24 -10t-10 -24v0zM205 63q-26 0 -52 10t-42 24q-19 14 -31 44.5t-12 57.5q0 25 15 53t31 44q11 11 38 21t53 10h37v74h-37q-86 0 -145.5 -59.5t-59.5 -145t59.5 -145.5t145.5 -60v-65l102 100l-102 105v-68z
M202 364v0q0 -15 11 -26t26 -11t26 11t11 26v0v0q0 15 -11 26t-26 11t-26 -11t-11 -26v0z" />
    <glyph glyph-name="07" unicode="&#xe613;" 
d="M1007 148l-495 -276l-495 276l104 58l394 -221l391 219zM759 461l248 -138l-495 -276l-495 276l240 134v-47l-152 -87l407 -224l407 224l-160 91v47zM512 759q-84 0 -143.5 20t-59.5 48.5t59.5 48.5t143.5 20t143.5 -20t59.5 -48.5t-59.5 -48.5t-143.5 -20zM715 795v-144
q0 -28 -59.5 -48t-143.5 -20t-143.5 20t-59.5 48v143q0 -28 59.5 -48t143.5 -20t143.5 20t59.5 48v1zM715 614v-143q0 -29 -59.5 -49t-143.5 -20t-143.5 20t-59.5 49v142q0 -28 59.5 -48t143.5 -20t143.5 20t59.5 48v1zM715 435v-143q0 -29 -59.5 -49t-143.5 -20t-143.5 20
t-59.5 49v142q0 -28 59.5 -48t143.5 -20t143.5 20t59.5 48v1z" />
    <glyph glyph-name="06" unicode="&#xe614;" 
d="M944 825h-864q-32 0 -54.5 -22.5t-22.5 -54.5t22.5 -54.5t54.5 -22.5h867q32 0 54.5 22.5t22.5 54.5q-2 32 -25 54.5t-55 22.5zM80 469q-32 0 -54.5 -22t-22.5 -54t22.5 -54.5t54.5 -22.5h358q20 98 71 153h-429zM472 111h-392q-32 0 -54.5 -22.5t-22.5 -54.5t22.5 -54.5
t54.5 -22.5h497q-99 143 -105 154zM785 538q-98 0 -167 -69t-69 -167q0 -37 19 -84.5t46 -90t54.5 -79t46.5 -58.5t19 -21q21 -26 51 -26t51 26q8 8 20.5 22t44 55.5t56 80t44.5 87t20 85.5q0 98 -69 168.5t-167 70.5zM785 196q-45 0 -78 32.5t-33 78.5q0 45 32.5 78
t78.5 33q47 0 79 -32t32 -79q-2 -45 -34.5 -78t-76.5 -33z" />
    <glyph glyph-name="05" unicode="&#xe615;" 
d="M784 30q34 -20 72.5 -9.5t58.5 45t9.5 72.5t-45 58t-73 10t-58.5 -45q-5 -10 -9 -21q-376 6 -386 5q-14 0 -23 -9.5t-9 -23.5q1 -53 -36.5 -91t-90.5 -38v0q-53 -1 -91.5 36.5t-38.5 90.5q2 34 16 61t30.5 40t37.5 22t29.5 10.5t13.5 2.5v0l-1 58q-4 -1 -10.5 -2
t-25.5 -6.5t-36.5 -13t-39 -23t-37 -35t-27.5 -49.5t-14 -66q1 -80 58 -135q57 -56 137 -55q52 0 96 26.5t69 69.5q16 28 22 61l362 -1q12 -29 40 -45zM763 293l-178 307q23 33 16.5 72t-38.5 62q-4 3 -8 5q-35 20 -73 10t-58 -44.5t-9.5 -73t44.5 -58.5t73 -10
q83 -147 188 -329q7 -12 20 -15t24 4q46 28 97.5 15t79.5 -58q28 -46 15 -97q-14 -58 -66 -85q-37 -23 -89 -10q-23 6 -43.5 20.5t-29.5 24.5t-9 11l-55 -33q2 -3 5.5 -7.5t15 -16.5t24.5 -22t34 -21.5t43 -17.5q77 -19 146 22q42 26 66 68q13 23 20 51q19 78 -22 146
q-37 60 -103.5 82.5t-129.5 -2.5zM450 840q-77 -23 -114 -94t-13 -147q17 -57 64 -94l-173 -300q-31 8 -60 -5t-45 -40q-20 -35 -9.5 -73.5t45 -58t72.5 -9.5t58 44q15 26 13 55t-20 52q30 52 78 134t81 138.5l33 56.5q7 12 3 24.5t-16 19.5q-47 24 -63 75t9 98q24 47 75 63
t98 -9q30 -16 47 -40t19.5 -46.5t1 -43t-5.5 -33.5l-5 -12l53 -30l1 1q36 80 13 151.5t-94 108.5q-69 38 -146 14z" />
    <glyph glyph-name="04" unicode="&#xe616;" 
d="M479 601q-10 -11 -27 -11t-29 11q-11 11 -11 27.5t11 29.5l167 167q75 71 179 71t178 -74t74 -178q0 -105 -74 -179l-181 -185q-71 -70 -179 -70q-67 0 -125.5 33t-92.5 89q-17 24 -26 56q-4 15 3.5 29.5t22.5 18.5q17 5 30.5 -2.5t17.5 -22.5q2 -10 17 -40
q23 -40 63 -62.5t87 -22.5q71 0 122 51l182 182q51 51 51 125q0 72 -51 123.5t-125 51.5t-125 -51zM545 170l-168 -168q-51 -51 -124.5 -51t-122.5 51q-51 52 -51 124t51 123l179 179q51 51 125 51t125 -51q17 -17 25 -34q13 -17 17 -40q5 -15 19.5 -23.5t29.5 -1.5
q15 4 23 18.5t2 29.5q-9 32 -25 57q-23 34 -40 51q-78 73 -179 73q-105 0 -179 -73l-178 -179q-73 -74 -73 -180t73 -180l3 -3q74 -72 178 -71t176 74l168 167q10 13 10 28.5t-10 28.5q-11 10 -27.5 10t-26.5 -10z" />
    <glyph glyph-name="03" unicode="&#xe617;" 
d="M868 600l11 34q12 37 -6 77q-19 39 -57 51l-395 128q-36 14 -74 -5q-40 -20 -48 -57q0 -2 -1.5 -6t-1.5 -6h-3q-41 9 -76.5 -12t-45.5 -62l-37 -153q-44 0 -59 -22t-15 -69v-518q0 -36 5 -57.5t19 -32.5t31.5 -14.5t49.5 -3.5h691q30 0 47 3t32 13.5t20.5 32.5t5.5 59
v518q0 51 -19.5 76.5t-73.5 25.5zM356 808q4 14 17 20.5t28 2.5l395 -131q16 -6 20 -17q6 -17 3 -29l-17 -48h-34q5 38 -14 68q-24 38 -60 46l-341 82q3 0 3 6zM233 728q5 14 17 22t26 4l404 -100q14 -5 23 -17q7 -11 2 -28v-6h-500zM617 466l-85 -164l-20 -40q-3 5 -8.5 18
t-8.5 19l-88 167h-74l122 -227h-99v-60h125v-34h-125v-57h125v-105h65v105h125v57h-125v34h125v60h-99l122 227h-77z" />
    <glyph glyph-name="02" unicode="&#xe618;" 
d="M879 193v288h11q-50 106 -152 172.5t-226 66.5t-226 -66.5t-152 -172.5h11v-288q-59 0 -102 42.5t-43 100.5q0 39 20.5 72t53.5 53q50 136 169 220t269 84t270.5 -84.5t167.5 -219.5q35 -20 54.5 -52.5t19.5 -72.5q0 -60 -42.5 -101.5t-102.5 -41.5zM512 623
q85 0 158 -41.5t115.5 -113t42.5 -155.5t-42.5 -155.5t-115.5 -113t-158 -41.5t-158 41.5t-115.5 113t-42.5 155.5t42.5 155.5t115.5 113t158 41.5z" />
    <glyph glyph-name="01" unicode="&#xe619;" 
d="M609 -128h-197q-60 0 -89.5 0.5t-76.5 3t-69.5 8.5t-48 16t-36 26.5t-10.5 39.5v20q0 88 44.5 163.5t120.5 119.5t165 44h197q89 0 165 -43.5t120.5 -119t44.5 -164.5v-20q0 -23 -10 -39.5t-36 -26.5t-49.5 -16t-70.5 -8.5t-76 -3t-88 -0.5zM503 381q-108 0 -184.5 76
t-76.5 183t76.5 181.5t184.5 74.5q109 0 185.5 -76t76.5 -183q0 -106 -77 -181t-185 -75z" />
    <glyph glyph-name="truck" unicode="&#xe61a;" 
d="M944 825h-864q-32 0 -54.5 -22.5t-22.5 -54.5t22.5 -54.5t54.5 -22.5h867q32 0 54.5 22.5t22.5 54.5q-2 32 -25 54.5t-55 22.5zM80 469q-32 0 -54.5 -22t-22.5 -54t22.5 -54.5t54.5 -22.5h358q20 98 71 153h-429zM472 111h-392q-32 0 -54.5 -22.5t-22.5 -54.5t22.5 -54.5
t54.5 -22.5h497q-99 143 -105 154zM785 538q-98 0 -167 -69t-69 -167q0 -37 19 -84.5t46 -90t54.5 -79t46.5 -58.5t19 -21q21 -26 51 -26t51 26q8 8 20.5 22t44 55.5t56 80t44.5 87t20 85.5q0 98 -69 168.5t-167 70.5zM785 196q-45 0 -78 32.5t-33 78.5q0 45 32.5 78
t78.5 33q47 0 79 -32t32 -79q-2 -45 -34.5 -78t-76.5 -33z" />
    <glyph glyph-name="fax" unicode="&#xe61b;" 
d="M868 600l11 34q12 37 -6 77q-19 39 -57 51l-395 128q-36 14 -74 -5q-40 -20 -48 -57q0 -2 -1.5 -6t-1.5 -6h-3q-41 9 -76.5 -12t-45.5 -62l-37 -153q-44 0 -59 -22t-15 -69v-518q0 -36 5 -57.5t19 -32.5t31.5 -14.5t49.5 -3.5h691q30 0 47 3t32 13.5t20.5 32.5t5.5 59
v518q0 51 -19.5 76.5t-73.5 25.5zM356 808q4 14 17 20.5t28 2.5l395 -131q16 -6 20 -17q6 -17 3 -29l-17 -48h-34q5 38 -14 68q-24 38 -60 46l-341 82q3 0 3 6zM233 728q5 14 17 22t26 4l404 -100q14 -5 23 -17q7 -11 2 -28v-6h-500zM617 466l-85 -164l-20 -40q-3 5 -8.5 18
t-8.5 19l-88 167h-74l122 -227h-99v-60h125v-34h-125v-57h125v-105h65v105h125v57h-125v34h125v60h-99l122 227h-77z" />
    <glyph glyph-name="jsfiddle" unicode="&#xe61c;" 
d="M347 535v159l165 102l165 -113v-148l77 -60v279l-242 142l-242 -142v-276zM646 501l-134 -83l-137 80l-73 -51l210 -120l210 122zM284 324l126 -74v-153l85 -40v242l-211 119v-94zM401 54l-151 -82l-176 96v174l168 96v100l-239 -139v-285l247 -142l236 139l-85 43v0z
M609 102v154l133 65v94l-210 -116v-242zM779 421v-91l165 -77v-182l-173 -97l-151 86l-80 -46l234 -142l247 142v285z" />
    <glyph glyph-name="sliders" unicode="&#xe61d;" 
d="M575 814h-128q-39 0 -66.5 -28.5t-27.5 -68.5q0 -41 28 -69t68 -28h128q41 0 69 28t28 69q0 40 -29.5 68.5t-69.5 28.5zM575 461h-128q-41 0 -69 -28t-28 -68.5t28 -69t69 -28.5h128q40 0 68 28.5t28 69t-28 68.5t-68 28zM575 111h-128q-41 0 -69 -28t-28 -68.5t28 -68.5
t69 -28h128q40 0 68 28t28 68.5t-28 68.5t-68 28zM816 694q27 0 57 -10.5t46 -23.5q20 -15 32 -45t8 -57q-2 -26 -16.5 -54t-29.5 -43q-12 -12 -43 -24.5t-56 -12.5h-37v-68h37q85 0 144.5 59.5t59.5 145t-59.5 145t-144.5 59.5v63l-103 -106l100 -93zM740 387v0
q0 -14 10 -24t24 -10t24 10t10 24v0v0q0 14 -10 24t-24 10t-24 -10t-10 -24v0zM205 63q-26 0 -52 10t-42 24q-19 14 -31 44.5t-12 57.5q0 25 15 53t31 44q11 11 38 21t53 10h37v74h-37q-86 0 -145.5 -59.5t-59.5 -145t59.5 -145.5t145.5 -60v-65l102 100l-102 105v-68z
M202 364v0q0 -15 11 -26t26 -11t26 11t11 26v0v0q0 15 -11 26t-26 11t-26 -11t-11 -26v0z" />
    <glyph glyph-name="23" unicode="&#xe61e;" 
d="M970 896h-603q-21 0 -36 -15t-15 -36v-103q0 -21 15 -36t36 -15h606q21 0 36 15t15 36v103q-2 21 -17.5 36t-36.5 15zM970 486h-603q-21 0 -36 -14.5t-15 -36.5v-102q0 -22 15 -36.5t36 -14.5h606q21 0 36 14.5t15 36.5v102q-2 22 -17.5 36.5t-36.5 14.5zM970 77h-603
q-21 0 -36 -15t-15 -36v-103q0 -21 15 -36t36 -15h606q21 0 36 15t15 36v103q-2 21 -17.5 36t-36.5 15zM154 896h-103q-21 0 -36 -15t-15 -36v-103q0 -21 15 -36t36 -15h103q21 0 36 15t15 36v103q0 21 -15 36t-36 15zM154 486h-103q-21 0 -36 -14.5t-15 -36.5v-102
q0 -22 15 -36.5t36 -14.5h103q21 0 36 14.5t15 36.5v102q0 22 -15 36.5t-36 14.5zM154 77h-103q-21 0 -36 -15t-15 -36v-103q0 -21 15 -36t36 -15h103q21 0 36 15t15 36v103q0 21 -15 36t-36 15z" />
    <glyph glyph-name="barcode" unicode="&#xe61f;" 
d="M970 896h-603q-21 0 -36 -15t-15 -36v-103q0 -21 15 -36t36 -15h606q21 0 36 15t15 36v103q-2 21 -17.5 36t-36.5 15zM970 486h-603q-21 0 -36 -14.5t-15 -36.5v-102q0 -22 15 -36.5t36 -14.5h606q21 0 36 14.5t15 36.5v102q-2 22 -17.5 36.5t-36.5 14.5zM970 77h-603
q-21 0 -36 -15t-15 -36v-103q0 -21 15 -36t36 -15h606q21 0 36 15t15 36v103q-2 21 -17.5 36t-36.5 15zM154 896h-103q-21 0 -36 -15t-15 -36v-103q0 -21 15 -36t36 -15h103q21 0 36 15t15 36v103q0 21 -15 36t-36 15zM154 486h-103q-21 0 -36 -14.5t-15 -36.5v-102
q0 -22 15 -36.5t36 -14.5h103q21 0 36 14.5t15 36.5v102q0 22 -15 36.5t-36 14.5zM154 77h-103q-21 0 -36 -15t-15 -36v-103q0 -21 15 -36t36 -15h103q21 0 36 15t15 36v103q0 21 -15 36t-36 15z" />
    <glyph glyph-name="database" unicode="&#xe620;" 
d="M17 569l478 -259q6 -3 14 -3q3 0 8 1.5t6 1.5l484 259q17 8 17 28q0 17 -17 29l-478 242q-14 9 -28 0l-481 -242q-17 -9 -17 -29q-4 -15 14 -28zM1001 421l-94 48l-62 -37l79 -39l-415 -228l-412 228l85 42l-63 37l-99 -51q-17 -9 -17 -28.5t17 -28.5l475 -259
q6 -3 14 -3q3 0 8 1.5t6 1.5l481 259q17 9 17 29q-4 18 -20 28zM1001 216l-91 43l-68 -34l82 -40l-415 -228l-412 228l82 40l-65 34l-94 -43q-17 -8 -17 -28t17 -29l475 -259q6 -2 14 -2q3 0 8 1t6 1l481 259q17 9 17 29q-4 18 -20 28z" />
    <glyph glyph-name="user" unicode="&#xe621;" 
d="M609 -128h-197q-60 0 -89.5 0.5t-76.5 3t-69.5 8.5t-48 16t-36 26.5t-10.5 39.5v20q0 88 44.5 163.5t120.5 119.5t165 44h197q89 0 165 -43.5t120.5 -119t44.5 -164.5v-20q0 -23 -10 -39.5t-36 -26.5t-49.5 -16t-70.5 -8.5t-76 -3t-88 -0.5zM503 381q-108 0 -184.5 76
t-76.5 183t76.5 181.5t184.5 74.5q109 0 185.5 -76t76.5 -183q0 -106 -77 -181t-185 -75z" />
    <glyph glyph-name="cubes" unicode="&#xe622;" 
d="M1010 580l-242 -242q-13 -12 -30 -12t-30 12l-242 242q-12 13 -12 30t12 30l242 242q13 13 30 13t30 -13l242 -242q13 -13 13 -30t-13 -30zM387 -128h-344q-17 0 -30 13t-13 30v344q0 17 13 30t30 13h344q17 0 30 -13t13 -30v-344q0 -17 -13 -30t-30 -13zM387 387h-344
q-17 0 -30 12.5t-13 30.5v344q0 17 13 29.5t30 12.5h344q17 0 30 -12.5t13 -29.5v-344q0 -18 -13 -30.5t-30 -12.5zM558 302h344q17 0 29.5 -13t12.5 -30v-344q0 -17 -12.5 -30t-29.5 -13h-344q-18 0 -30.5 13t-12.5 30v344q0 17 12.5 30t30.5 13z" />
    <glyph glyph-name="envelope" unicode="&#xe623;" 
d="M879 193v288h11q-50 106 -152 172.5t-226 66.5t-226 -66.5t-152 -172.5h11v-288q-59 0 -102 42.5t-43 100.5q0 39 20.5 72t53.5 53q50 136 169 220t269 84t270.5 -84.5t167.5 -219.5q35 -20 54.5 -52.5t19.5 -72.5q0 -60 -42.5 -101.5t-102.5 -41.5zM512 623
q85 0 158 -41.5t115.5 -113t42.5 -155.5t-42.5 -155.5t-115.5 -113t-158 -41.5t-158 41.5t-115.5 113t-42.5 155.5t42.5 155.5t115.5 113t158 41.5z" />
    <glyph glyph-name="clipboard" unicode="&#xe625;" 
d="M479 601q-10 -11 -27 -11t-29 11q-11 11 -11 27.5t11 29.5l167 167q75 71 179 71t178 -74t74 -178q0 -105 -74 -179l-181 -185q-71 -70 -179 -70q-67 0 -125.5 33t-92.5 89q-17 24 -26 56q-4 15 3.5 29.5t22.5 18.5q17 5 30.5 -2.5t17.5 -22.5q2 -10 17 -40
q23 -40 63 -62.5t87 -22.5q71 0 122 51l182 182q51 51 51 125q0 72 -51 123.5t-125 51.5t-125 -51zM545 170l-168 -168q-51 -51 -124.5 -51t-122.5 51q-51 52 -51 124t51 123l179 179q51 51 125 51t125 -51q17 -17 25 -34q13 -17 17 -40q5 -15 19.5 -23.5t29.5 -1.5
q15 4 23 18.5t2 29.5q-9 32 -25 57q-23 34 -40 51q-78 73 -179 73q-105 0 -179 -73l-178 -179q-73 -74 -73 -180t73 -180l3 -3q74 -72 178 -71t176 74l168 167q10 13 10 28.5t-10 28.5q-11 10 -27.5 10t-26.5 -10z" />
    <glyph glyph-name="building" unicode="&#xe626;" 
d="M515 779q-91 0 -174 -35t-142.5 -95t-95 -142.5t-35.5 -173.5t35.5 -174t95 -142.5t142.5 -95t174 -35.5t173.5 35.5t142.5 95t95 142.5t35 174t-35 173.5t-95 142.5t-142.5 95t-173.5 35zM515 -51q-105 0 -193.5 51t-139.5 139.5t-51 193.5t51 194.5t139.5 142
t193.5 52.5t194.5 -51.5t142.5 -140t53 -192t-52.5 -193.5t-143 -143t-194.5 -53zM361 725.5q0 -70.5 50 -120.5t121 -50t121 50t50 120.5t-50 120.5t-121 50t-121 -50t-50 -120.5zM683 117v0q0 -71 50 -121t120.5 -50t120.5 50t50 121v0v0q0 70 -50 120t-120.5 50
t-120.5 -50t-50 -120v0zM0 117v0q0 -71 50 -121t120.5 -50t120.5 50t50 121v0v0q0 70 -50 120t-120.5 50t-120.5 -50t-50 -120v0z" />
    <glyph glyph-name="users" unicode="&#xe627;" 
d="M668 156q-16 24 -43 38t-53 14h-142q-24 0 -51 -14t-46 -38l-57 -79q-32 -43 -43.5 -90t4 -79.5t59.5 -32.5h407q43 0 58.5 32.5t4 79.5t-43.5 90zM503.5 896q-101.5 0 -194.5 -39.5t-160 -107t-106.5 -160t-39.5 -194.5q0 -114 48.5 -214t133.5 -172q3 9 14 27t14 24
q-20 17 -54 57q6 2 21.5 7.5t27.5 9.5q11 -34 17 -54l3 2l14 23q-2 6 -6 17.5t-6 16.5q8 2 22 6l21 6l23 31q-44 -10 -71 -20q-22 82 -26 165q26 4 43.5 22t19.5 44h102v-6q0 -58 41 -99t98.5 -41t98.5 41t41 99v6h105q4 -26 21.5 -44t41.5 -22q-10 -92 -29 -165
q-17 7 -71 20l23 -31l21 -6t22 -6q-6 -22 -12 -34l14 -20l3 -3l17 52q17 -6 46 -17q-34 -40 -54 -57q3 -7 14 -23t14 -26q86 71 134 173t48 214q1 101 -38 193t-106 159t-159.5 106.5t-194 39.5zM942 418h-40q-5 24 -22.5 41t-43.5 22q-8 96 -34 190q7 3 17 6t17 6
q97 -109 106 -265zM819 703q-4 -2 -6.5 -2.5t-7 -1.5t-9.5 -2q-2 7 -5 14t-7 15.5t-7 15.5q23 -16 42 -39zM742 768q3 -6 15 -33t17 -44q-93 -25 -191 -34q-2 26 -19.5 46.5t-42.5 24.5v108q116 -4 221 -68zM503 603q-18 0 -31.5 14.5t-13.5 33.5q0 20 13 33t32 13
t32.5 -14.5t13.5 -33.5q-2 -20 -14.5 -33t-31.5 -13zM267 771q105 65 225 65v-108q-28 -4 -46.5 -25t-18.5 -49q-100 9 -188 34q2 14 6.5 26.5t11.5 29.5t10 27zM236 751q-19 -46 -23 -57q-3 1 -31 9q34 34 54 48zM168 683q7 -3 20 -6t20 -6q-26 -94 -34 -190
q-26 -5 -44 -22t-22 -41h-45q8 156 105 265zM145 137q-78 111 -82 256h42q5 -26 22.5 -44t43.5 -22q9 -95 28 -171q-23 -6 -54 -19zM182 358q-19 0 -32 14.5t-13 34.5q0 18 12.5 30.5t32.5 14.5q19 0 32.5 -14.5t13.5 -33.5t-13 -31t-33 -15zM259 418q-4 24 -21.5 41
t-41.5 22q8 82 32 182q92 -28 199 -37q6 -22 24 -37.5t41 -19.5v-46q-47 -4 -82 -33.5t-46 -74.5h-105v3zM751 418h-108q-11 43 -44.5 73.5t-77.5 34.5v46q21 4 37 18.5t22 35.5q111 9 202 37q27 -95 32 -182q-26 -5 -42.5 -21t-20.5 -42zM779 404q0 19 14.5 32t34.5 13
q19 0 32 -13t13 -32t-14.5 -32.5t-33.5 -13.5q-19 3 -32.5 16t-13.5 30zM811 156q25 100 28 174q26 4 43.5 22t22.5 43h39q0 -146 -82 -258q-14 4 -51 19z" />
  </font>
</defs>
</svg>
